<svg width="674" height="674" viewBox="0 0 674 674" fill="none" xmlns="http://www.w3.org/2000/svg">
<path d="M337 0C220.693 0 126.375 94.3179 126.375 210.625C126.375 421.25 337 674 337 674C337 674 547.625 421.25 547.625 210.625C547.625 94.3179 453.307 0 337 0ZM337 339.654C265.767 339.654 207.971 281.901 207.971 210.625C207.971 139.35 265.725 81.5961 337 81.5961C408.276 81.5961 466.029 139.35 466.029 210.625C466.029 281.901 408.276 339.654 337 339.654ZM255.404 210.625C255.404 165.551 291.926 128.987 337.042 128.987C382.158 128.987 418.68 165.509 418.68 210.625C418.68 255.699 382.158 292.263 337.042 292.263C291.926 292.263 255.404 255.741 255.404 210.625Z" fill="#757575"/>
</svg>
